<?xml version="1.0" standalone="no"?>
<!DOCTYPE svg PUBLIC "-//W3C//DTD SVG 20010904//EN"
 "http://www.w3.org/TR/2001/REC-SVG-20010904/DTD/svg10.dtd">
<svg version="1.0" xmlns="http://www.w3.org/2000/svg"
 width="1200.000000pt" height="1200.000000pt" viewBox="0 0 1200.000000 1200.000000"
 preserveAspectRatio="xMidYMid meet">
<metadata>
Created by potrace 1.16, written by Peter Selinger 2001-2019
</metadata>
<g transform="translate(0.000000,1200.000000) scale(0.100000,-0.100000)"
fill="#000000" stroke="none">
<path d="M0 6000 l0 -6000 6000 0 6000 0 0 6000 0 6000 -6000 0 -6000 0 0
-6000z m5463 5380 c355 -52 774 -199 1013 -355 322 -209 552 -499 708 -891 45
-113 89 -280 118 -444 26 -149 31 -445 10 -575 -49 -298 -138 -473 -348 -674
-99 -95 -126 -115 -216 -160 -214 -105 -381 -116 -596 -39 -229 83 -460 316
-588 593 -50 110 -90 232 -135 412 -58 239 -145 467 -236 617 -274 454 -701
780 -1250 956 -69 22 -163 48 -208 57 l-82 17 41 35 c131 110 451 280 661 350
255 85 471 119 765 120 158 1 237 -4 343 -19z m2542 -291 c344 -67 673 -219
978 -451 117 -90 329 -306 434 -444 107 -140 181 -261 263 -425 178 -353 250
-619 250 -918 0 -487 -219 -1003 -587 -1382 -298 -306 -557 -429 -901 -429
-158 0 -289 28 -412 88 -169 82 -314 252 -374 437 -71 225 -53 515 49 775 50
127 82 188 187 363 48 82 103 178 122 215 208 416 261 906 150 1376 -65 272
-193 565 -349 800 l-19 28 55 -7 c30 -3 99 -15 154 -26z m-4731 -1169 c251
-21 495 -89 718 -201 241 -121 384 -224 573 -414 193 -193 318 -394 367 -590
30 -122 33 -411 4 -520 -33 -127 -98 -247 -183 -336 -131 -136 -257 -202 -452
-234 -307 -51 -637 36 -1004 266 -365 228 -705 329 -1107 329 -254 0 -464 -37
-725 -128 -138 -47 -368 -158 -500 -240 -44 -28 -82 -49 -83 -47 -9 8 32 228
63 339 82 298 201 542 388 796 90 122 355 387 477 477 304 225 638 387 954
463 189 46 314 56 510 40z m7738 -1730 c120 -181 244 -454 307 -675 90 -320
107 -707 45 -1060 -59 -340 -200 -718 -359 -960 -105 -161 -282 -338 -465
-467 -47 -33 -150 -92 -230 -132 -242 -120 -457 -181 -745 -212 -138 -15 -181
-16 -315 -6 -380 30 -587 122 -816 364 -87 91 -126 148 -170 243 -47 102 -64
182 -64 306 0 282 158 542 447 737 167 112 301 167 615 248 235 61 332 95 503
182 380 190 662 475 889 896 85 157 194 460 226 629 l12 59 25 -24 c14 -12 57
-70 95 -128z m-8072 -890 c111 -20 250 -64 330 -105 81 -41 203 -139 301 -243
80 -84 105 -118 148 -204 87 -175 108 -312 73 -482 -67 -322 -339 -597 -748
-756 -43 -17 -160 -51 -259 -76 -314 -79 -514 -159 -716 -287 -447 -282 -784
-773 -929 -1351 l-37 -148 -50 68 c-248 336 -401 733 -444 1153 -15 143 -6
479 16 621 54 348 202 755 371 1013 91 141 326 374 473 472 243 160 506 264
812 320 209 38 461 40 659 5z m790 -2350 c178 -29 303 -92 431 -219 81 -80
103 -110 137 -181 68 -140 86 -228 87 -410 0 -165 -12 -247 -62 -404 -34 -111
-117 -283 -198 -411 -241 -385 -345 -726 -345 -1140 0 -330 69 -623 229 -967
36 -80 137 -258 179 -317 l17 -24 -63 6 c-353 37 -788 222 -1122 477 -99 76
-310 285 -390 385 -238 302 -442 711 -516 1036 -89 395 -29 820 173 1223 123
246 272 442 471 622 213 193 404 290 637 323 86 12 259 13 335 1z m4410 -594
c190 -44 330 -106 571 -252 376 -228 701 -323 1107 -324 218 0 432 34 652 104
175 55 401 160 550 254 72 46 96 57 98 45 2 -8 -4 -59 -13 -112 -103 -588
-410 -1094 -896 -1478 -238 -188 -688 -411 -951 -472 -153 -35 -242 -45 -413
-45 -231 1 -402 32 -635 117 -283 102 -538 265 -751 477 -314 313 -432 581
-416 945 6 143 31 245 88 364 57 116 187 248 304 308 88 45 188 78 280 93 99
15 306 4 425 -24z m-2376 -571 c159 -42 257 -99 388 -224 207 -197 319 -403
404 -739 89 -352 168 -551 298 -752 173 -267 349 -441 618 -613 228 -146 500
-261 761 -322 l118 -28 -28 -23 c-115 -95 -324 -220 -484 -288 -333 -142 -603
-196 -971 -196 -318 1 -594 53 -928 177 -135 50 -363 161 -445 218 -439 301
-730 805 -806 1395 -16 122 -16 371 0 479 30 206 98 390 190 516 68 93 198
222 280 277 195 133 408 176 605 123z"/>
</g>
</svg>
